<?xml version="1.0" encoding="UTF-8"?>
<svg id="Layer_2" data-name="Layer 2" xmlns="http://www.w3.org/2000/svg" xmlns:xlink="http://www.w3.org/1999/xlink" viewBox="0 0 1053.02 442.42">
  <defs>
    <style>
      .cls-1 {
        fill: none;
      }

      .cls-2 {
        fill: #2b2f33;
      }

      .cls-3 {
        fill: url(#linear-gradient);
      }

      .cls-4 {
        fill: #2a2f33;
      }

      .cls-5 {
        fill: #fff;
        stroke: #231f20;
        stroke-miterlimit: 10;
      }

      .cls-6 {
        clip-path: url(#clippath);
      }
    </style>
    <clipPath id="clippath">
      <path class="cls-1" d="M130.59,331.37h165.88v41.95H64.63v-35.45l103.43-97.36,27.41,28.31-64.88,62.56ZM151.08,205.53c-4.9,11.37,6.5,22.58,17.93,18.94l41.12,40.43-.5,11.06c-.8,1.26-16.01,16.49-17.11,16.98-2.62,1.17-7.05-1.32-12.33,1.6-18.09,10.03.4,35.87,15.87,22.85,7.36-6.19,2.62-12.26,4.03-16.04.48-1.3,17.63-17.66,18.96-17.91,6.16-1.14,10.28,1.97,15.46-4.52s3.93-17.25-3.93-21.02c-5-2.4-7.99-.57-12.3-1.69-2.85-.74-40.17-37.4-40.69-40.22-.55-2.98.4-6.03-.49-9.5-2.05-7.95-10.52-10.4-17.81-8.75-2.84.64-7.04,5.09-8.2,7.78Z"/>
    </clipPath>
    <linearGradient id="linear-gradient" x1="707.39" y1="-599.3" x2="912.95" y2="-599.3" gradientTransform="translate(56.55 860.09) rotate(-46.48) scale(.63 .54)" gradientUnits="userSpaceOnUse">
      <stop offset="0" stop-color="#1f72dc" stop-opacity="0"/>
      <stop offset=".35" stop-color="#2271dd"/>
      <stop offset="1" stop-color="#975bef"/>
    </linearGradient>
  </defs>
  <g id="Layer_1-2" data-name="Layer 1">
    <g>
      <rect class="cls-5" x=".5" y=".5" width="1052.02" height="441.42"/>
      <g>
        <path class="cls-4" d="M818.1,171.57v-30.96h48.97v232.7h-48.97v-32.96c-41.65,49-121.15,49.17-168.41,8.02-56.8-49.47-53.81-145.03,7.21-189.59,46.07-33.65,123.26-33.22,161.2,12.8ZM736.93,176.83c-56.08.71-88.57,51.83-73.98,104.36,21.49,77.38,140.8,72.29,153.03-10.37,7.61-51.4-25.98-94.66-79.05-93.99Z"/>
        <path class="cls-4" d="M384.41,140.61v136.32c0,67.45,104.15,80.88,128.09,22.15,1.69-4.15,5.82-17.27,5.82-21.15v-137.32h49.46v232.7h-45.97l-1.5-1.5v-28.46c-34.03,43.72-110.43,45.23-151.36,10.96-22.88-19.16-32.17-45.07-34.5-74.38v-139.31s49.95,0,49.95,0Z"/>
        <polygon class="cls-4" points="130.59 331.37 296.47 331.37 296.47 373.31 64.63 373.31 64.63 337.86 168.06 240.5 195.47 268.81 130.59 331.37"/>
        <path class="cls-4" d="M294.47,140.61v34.46l-71.45,67.45c-1.98,0-28.74-25.41-28.4-27.36l34.9-33.6H69.63v-40.95h224.84Z"/>
        <rect class="cls-4" x="923.02" y="140.61" width="48.97" height="232.7"/>
        <path class="cls-4" d="M942.77,52.99c42.39-5.77,48.54,56.1,9.63,60.55-42.96,4.92-47.71-55.37-9.63-60.55Z"/>
        <path class="cls-2" d="M159.28,197.75c7.29-1.65,15.76.8,17.81,8.75.89,3.47-.06,6.51.49,9.5.52,2.82,37.84,39.49,40.69,40.22,4.31,1.11,7.3-.71,12.3,1.69,7.86,3.77,9.2,14.42,3.93,21.02s-9.3,3.38-15.46,4.52c-1.33.25-18.47,16.61-18.96,17.91-1.41,3.78,3.32,9.85-4.03,16.04-15.47,13.02-33.95-12.82-15.87-22.85,5.27-2.92,9.71-.43,12.33-1.6,1.1-.49,16.31-15.72,17.11-16.98l.5-11.06-41.12-40.43c-11.43,3.63-22.83-7.58-17.93-18.94,1.16-2.69,5.36-7.13,8.2-7.78Z"/>
      </g>
      <g class="cls-6">
        <polygon class="cls-3" points="262.69 263.41 202.92 326.35 169.41 322.67 143.19 328.36 79.77 268.14 168.87 174.31 262.69 263.41"/>
      </g>
    </g>
  </g>
</svg>